<?xml version="1.0" standalone="no"?>
<!DOCTYPE svg PUBLIC "-//W3C//DTD SVG 20010904//EN"
 "http://www.w3.org/TR/2001/REC-SVG-20010904/DTD/svg10.dtd">
<svg version="1.0" xmlns="http://www.w3.org/2000/svg"
 width="250.000000pt" height="250.000000pt" viewBox="0 0 250.000000 250.000000"
 preserveAspectRatio="xMidYMid meet">
<metadata>
Created by potrace 1.11, written by Peter Selinger 2001-2013
</metadata>
<g transform="translate(0.000000,250.000000) scale(0.100000,-0.100000)"
fill="#000000" stroke="none">
<path d="M112 2483 c-44 -21 -100 -89 -107 -127 -3 -17 -4 -526 -3 -1131 l3
-1100 23 -33 c13 -17 40 -44 59 -60 l36 -27 1127 0 1127 0 36 27 c19 16 46 43
59 60 l23 33 0 1126 0 1126 -27 36 c-16 19 -43 46 -60 59 l-33 23 -1115 2
c-1014 2 -1118 1 -1148 -14z"/>
</g>
</svg>
