<?xml version="1.0" standalone="no"?>
<!DOCTYPE svg PUBLIC "-//W3C//DTD SVG 20010904//EN"
 "http://www.w3.org/TR/2001/REC-SVG-20010904/DTD/svg10.dtd">
<svg version="1.0" xmlns="http://www.w3.org/2000/svg"
 width="700.000000pt" height="700.000000pt" viewBox="0 0 700.000000 700.000000"
 preserveAspectRatio="xMidYMid meet">
<metadata>
Created by potrace 1.11, written by Peter Selinger 2001-2013
</metadata>
<g transform="translate(0.000000,700.000000) scale(0.100000,-0.100000)"
fill="#000000" stroke="none">
<path d="M3298 6995 c-2 -1 -41 -5 -88 -9 -100 -7 -225 -22 -295 -36 -27 -5
-61 -12 -75 -14 -429 -78 -857 -251 -1250 -504 -81 -52 -319 -227 -330 -243
-3 -3 -25 -23 -50 -44 -84 -68 -252 -238 -374 -375 -162 -182 -376 -514 -500
-775 -94 -195 -207 -516 -241 -683 -2 -9 -8 -37 -14 -62 -11 -49 -13 -63 -35
-195 -34 -204 -40 -302 -40 -570 0 -233 11 -378 39 -545 6 -32 24 -129 29
-155 22 -110 100 -390 125 -450 5 -11 14 -36 21 -55 7 -19 16 -44 21 -55 5
-11 17 -43 28 -71 29 -77 129 -279 178 -362 24 -41 43 -75 43 -77 0 -2 30 -50
67 -107 477 -740 1215 -1274 2060 -1493 72 -19 142 -36 155 -39 13 -2 50 -9
83 -15 33 -6 71 -13 85 -16 14 -3 52 -8 85 -11 33 -3 63 -8 66 -9 15 -10 227
-20 409 -20 188 0 341 8 430 21 144 21 295 48 345 61 33 8 67 16 75 18 100 20
358 107 513 172 122 51 339 160 395 198 20 14 40 25 43 25 24 0 370 250 479
345 119 104 294 279 365 365 21 25 41 47 44 50 18 13 182 236 246 335 246 380
409 784 499 1236 14 70 28 155 32 190 3 35 8 67 10 70 9 17 19 214 18 399 0
188 -6 331 -19 420 -3 19 -7 56 -10 81 -3 25 -7 54 -9 65 -2 10 -11 60 -21
109 -151 809 -604 1553 -1265 2080 -413 329 -926 570 -1447 679 -98 21 -243
43 -393 61 -54 7 -526 16 -532 10z"/>
</g>
</svg>
